PathFileType	4	(X/Y/Z)	 s02c0401.trc
DataRate	CameraRate	NumFrames	NumMarkers	Units	OrigDataRate	OrigDataStartFrame	OrigNumFrames
200	200	4	50	mm	200	1251	2000
Frame#	Time	racr			lacr			c7			jug			rlel			rdr			llel			ldr			s2			lic			ric			lasi			rasi			rpsi			lpsi			rgt			lgt			rth1			rth2			rth3			rth4			rlfc			rmfc			rsh1			rsh2			rsh3			rsh4			rlmal			rmmal			rtoe			rmt5			rmt1			lth1			lth2			lth4			lth3			llfc			lmfc			lsh1			lsh2			lsh3			lsh4			llmal			lmmal			lcal			ltoe			lmt5			SBIKE			LBIKE			RBIKE			
		X1	Y1	Z1	X2	Y2	Z2	X3	Y3	Z3	X4	Y4	Z4	X5	Y5	Z5	X6	Y6	Z6	X7	Y7	Z7	X8	Y8	Z8	X9	Y9	Z9	X10	Y10	Z10	X11	Y11	Z11	X12	Y12	Z12	X13	Y13	Z13	X14	Y14	Z14	X15	Y15	Z15	X16	Y16	Z16	X17	Y17	Z17	X18	Y18	Z18	X19	Y19	Z19	X20	Y20	Z20	X21	Y21	Z21	X22	Y22	Z22	X23	Y23	Z23	X24	Y24	Z24	X25	Y25	Z25	X26	Y26	Z26	X27	Y27	Z27	X28	Y28	Z28	X29	Y29	Z29	X30	Y30	Z30	X31	Y31	Z31	X32	Y32	Z32	X33	Y33	Z33	X34	Y34	Z34	X35	Y35	Z35	X36	Y36	Z36	X37	Y37	Z37	X38	Y38	Z38	X39	Y39	Z39	X40	Y40	Z40	X41	Y41	Z41	X42	Y42	Z42	X43	Y43	Z43	X44	Y44	Z44	X45	Y45	Z45	X46	Y46	Z46	X47	Y47	Z47	X48	Y48	Z48	X49	Y49	Z49	X50	Y50	Z50	
1251	6.2550	783.624972	1191.302840	-115.666344	792.494153	1160.608711	-488.123788	807.725910	1238.661700	-309.667838	722.868317	1125.030529	-312.785683	604.022164	1010.115791	-16.996433	709.609012	879.253467	-116.057024	572.768632	1024.461420	-622.162869	702.833457	887.571413	-519.969805	252.365511	1169.959196	-342.784688	401.899619	1123.718757	-473.164724	365.278449	1176.659290	-193.579322	428.132761	1085.772068	-436.537276	411.315848	1133.492712	-209.458249	282.161733	1215.891259	-304.402179	298.427285	1205.391685	-387.041005	339.788448	1098.282118	-146.026006	317.661797	1045.717424	-495.989184	426.764358	1053.712846	-153.739254	509.809591	1024.084165	-168.333794	571.483425	967.470484	-151.478492	522.213840	1044.386937	-198.546064	656.394994	853.165414	-191.824246	625.476669	836.492769	-299.661742	584.663951	768.256260	-169.542208	517.560087	710.105663	-180.633920	436.706949	685.195532	-164.880176	521.339185	699.511712	-219.759040	327.171162	634.743069	-156.392492	338.412671	643.213685	-238.601532	406.430570	426.326879	-191.207600	331.214234	505.173339	-133.881544	354.100975	489.026381	-240.690686	357.011111	914.833114	-513.788344	381.083482	830.911784	-508.213715	414.427425	832.748728	-492.657078	358.466691	744.927098	-507.502282	361.030169	648.649163	-483.468394	351.460985	619.168201	-386.122199	326.142538	551.877291	-508.592027	326.979918	466.960296	-494.678478	281.004918	388.150222	-495.207592	344.623369	464.820897	-457.550209	244.698652	288.607239	-481.986016	257.242191	281.784821	-403.693141	170.127877	274.358994	-443.403041	411.803367	113.200842	-435.278451	312.544992	150.801773	-501.088388	-162.225170	860.592823	-310.288838	37.386742	86.184885	-514.307573	34.014190	83.117606	-114.244231	
1252	6.2600	782.497228	1190.396782	-112.972886	793.303661	1160.677941	-485.188072	807.441851	1238.169609	-306.558894	722.794367	1124.403933	-310.343704	603.214131	1008.946887	-15.698697	709.135035	879.408187	-115.877152	573.614822	1024.259614	-620.616143	702.627290	886.720816	-519.381062	252.215967	1171.132775	-343.696319	402.806985	1123.940475	-473.188726	364.332704	1177.521308	-194.141439	428.176276	1086.021815	-436.171839	411.276240	1135.381246	-209.883787	282.346571	1216.552120	-306.279883	299.513749	1206.426664	-388.561735	339.822287	1100.735134	-146.442329	317.400551	1046.419178	-496.741901	426.448659	1057.820251	-154.187919	509.586054	1028.626866	-168.495110	571.588181	972.393951	-150.890037	521.963520	1048.920017	-198.784649	662.368936	856.036927	-192.813954	628.547143	842.627716	-299.177910	589.560368	773.290165	-168.926257	523.793206	713.673663	-180.522398	443.293204	687.314654	-164.929378	527.861436	703.249358	-219.439950	334.010485	634.584507	-156.894643	345.008675	643.031281	-238.843715	418.298303	428.633971	-191.091312	341.140058	505.845513	-133.847396	364.975415	490.373425	-241.216965	355.126279	915.419980	-513.863763	378.192423	831.218323	-509.148239	411.529170	832.571292	-493.441979	354.202999	745.694020	-508.503693	355.515785	649.153897	-484.570877	345.934345	619.750352	-386.902609	319.655344	552.968393	-509.642416	320.128326	468.007550	-495.777209	273.515560	389.319138	-495.971399	337.928527	465.709222	-458.671916	237.454388	289.963986	-482.816480	249.764971	283.194559	-404.466579	162.656447	277.546746	-444.212967	400.761902	111.115591	-435.082488	302.499807	150.668310	-501.201518	-162.311019	860.589113	-310.339693	37.382004	86.148672	-514.342757	34.002575	83.112294	-114.240395	
1253	6.2650	781.255246	1189.305180	-110.273575	794.032689	1160.710132	-482.395805	807.507916	1237.873922	-303.432463	722.505225	1124.414604	-308.254667	602.247718	1007.567961	-15.100083	708.655606	879.474114	-115.723401	574.532846	1024.173437	-618.867992	702.574241	885.831630	-518.683736	251.955404	1172.565349	-344.424839	403.382776	1124.666433	-473.327468	363.628490	1178.775821	-194.464659	427.955733	1086.773453	-435.825880	410.855801	1136.952389	-210.251768	282.423498	1217.615831	-307.564511	300.434777	1207.447325	-389.742446	339.720658	1103.458867	-146.910620	316.842089	1047.548472	-497.358540	426.074512	1062.071871	-153.525968	508.994510	1032.839191	-168.250770	571.237175	977.562488	-149.018379	521.489520	1053.005350	-198.568804	659.709120	864.242481	-186.635199	630.325500	849.667004	-299.354806	593.921433	777.807027	-168.297287	530.761714	717.550747	-178.347484	449.451296	688.933582	-164.764220	533.963646	706.394366	-218.870310	340.239624	633.672188	-157.300103	351.075172	642.091667	-238.992030	430.498369	430.626452	-191.296218	350.811797	505.858737	-133.676730	375.173234	491.000711	-241.151297	353.841299	916.866251	-514.655576	375.746475	832.348954	-510.229122	408.934822	832.866346	-494.210273	350.490619	746.896549	-509.474670	350.722971	650.073775	-485.864875	341.490282	620.684360	-387.775785	314.162688	554.483633	-510.539398	313.983580	469.582981	-496.778793	266.682558	391.216439	-496.747621	331.878020	467.105253	-459.751013	230.460853	292.049726	-483.588535	242.578791	285.291037	-405.289949	155.512224	281.397973	-444.797561	389.717479	109.644425	-434.939728	292.446519	151.141459	-501.296136	-162.310643	860.625157	-310.339029	37.361107	86.147467	-514.337144	33.990826	83.104278	-114.254414	
1254	6.2700	780.031351	1187.966612	-107.755288	794.697671	1160.811995	-479.663602	807.399853	1237.106771	-300.408622	722.081432	1123.926262	-306.087241	601.141811	1006.314168	-13.826881	708.086781	879.699787	-115.863215	577.989903	1023.645599	-619.314101	702.574204	884.958077	-517.961345	252.176742	1174.057637	-345.516037	403.964234	1125.814010	-474.164144	363.014247	1180.146063	-194.844414	427.539633	1087.668471	-435.657809	410.173723	1138.319658	-210.338486	282.609050	1218.996253	-308.632451	300.275969	1209.404770	-389.682757	339.580658	1105.867380	-147.523201	316.038101	1049.167458	-498.029920	425.228022	1065.856946	-153.375382	508.096708	1036.514658	-167.682125	570.212575	981.653710	-147.965570	520.669691	1056.671528	-197.943265	661.176345	869.455862	-184.201476	632.496509	853.323761	-297.199454	597.595794	781.839572	-167.088742	536.032113	720.089945	-176.995430	454.973353	689.943443	-164.264712	539.560426	708.875074	-217.724168	345.616500	631.982855	-157.551526	357.770122	640.811620	-239.498554	442.573546	432.598559	-190.716452	360.098548	505.290775	-133.373930	385.137433	491.109813	-241.043163	352.392457	918.552999	-515.038372	373.649419	833.864832	-511.369380	406.791997	833.929147	-495.261141	347.443196	748.609612	-510.496607	347.001691	651.488906	-487.114626	338.010481	622.432227	-388.101981	309.547094	556.449017	-511.421324	308.442135	471.441697	-497.488377	260.379475	393.707480	-497.504373	326.579825	468.825444	-460.685501	223.543511	294.902702	-484.178602	234.205132	288.970847	-407.518089	148.477811	285.947951	-445.297064	378.750907	108.976912	-434.926951	282.411731	152.472769	-501.434151	-162.369167	860.566308	-310.355566	37.342755	86.154352	-514.343728	33.982577	83.121452	-114.255644	
